<?xml version="1.0" encoding="UTF-8" standalone="no"?>
<!DOCTYPE svg PUBLIC "-//W3C//DTD SVG 1.1//EN"
 "http://www.w3.org/Graphics/SVG/1.1/DTD/svg11.dtd">
<!-- Generated by graphviz version 2.40.1 (20161225.0304)
 -->
<!-- Title: attribute Pages: 1 -->
<svg width="533pt" height="742pt"
 viewBox="0.00 0.00 532.50 742.00" xmlns="http://www.w3.org/2000/svg" xmlns:xlink="http://www.w3.org/1999/xlink">
<g id="graph0" class="graph" transform="scale(1 1) rotate(0) translate(4 738)">
<title>attribute</title>
<polygon fill="#ffffff" stroke="transparent" points="-4,4 -4,-738 528.5,-738 528.5,4 -4,4"/>
<!-- attribute -->
<g id="node1" class="node">
<title>attribute</title>
<polygon fill="#efefef" stroke="transparent" points="47.5,-165.5 47.5,-200.5 253.5,-200.5 253.5,-165.5 47.5,-165.5"/>
<polygon fill="none" stroke="#000000" points="47.5,-165.5 47.5,-200.5 253.5,-200.5 253.5,-165.5 47.5,-165.5"/>
<text text-anchor="start" x="54.2071" y="-178.3" font-family="Arial Bold" font-size="18.00" fill="#000000">attribute</text>
<text text-anchor="start" x="119.2249" y="-178.3" font-family="Arial" font-size="14.00" fill="#000000">    </text>
<text text-anchor="start" x="153.4297" y="-178.3" font-family="Arial" font-size="14.00" fill="#666666">[BASE TABLE]</text>
<polygon fill="none" stroke="#000000" points="47.5,-135.5 47.5,-165.5 253.5,-165.5 253.5,-135.5 47.5,-135.5"/>
<text text-anchor="start" x="54.5" y="-146.9" font-family="Arial" font-size="14.00" fill="#000000">id </text>
<text text-anchor="start" x="69.2798" y="-146.9" font-family="Arial" font-size="14.00" fill="#666666">[bigint]</text>
<polygon fill="none" stroke="#000000" points="47.5,-105.5 47.5,-135.5 253.5,-135.5 253.5,-105.5 47.5,-105.5"/>
<text text-anchor="start" x="54.5" y="-116.9" font-family="Arial" font-size="14.00" fill="#000000">name </text>
<text text-anchor="start" x="93.399" y="-116.9" font-family="Arial" font-size="14.00" fill="#666666">[varchar(50)]</text>
<polygon fill="none" stroke="#000000" points="47.5,-75.5 47.5,-105.5 253.5,-105.5 253.5,-75.5 47.5,-75.5"/>
<text text-anchor="start" x="54.5" y="-86.9" font-family="Arial" font-size="14.00" fill="#000000">created_at </text>
<text text-anchor="start" x="124.528" y="-86.9" font-family="Arial" font-size="14.00" fill="#666666">[timestamp]</text>
<polygon fill="none" stroke="#000000" points="47.5,-45.5 47.5,-75.5 253.5,-75.5 253.5,-45.5 47.5,-45.5"/>
<text text-anchor="start" x="54.5" y="-56.9" font-family="Arial" font-size="14.00" fill="#000000">updated_at </text>
<text text-anchor="start" x="128.4326" y="-56.9" font-family="Arial" font-size="14.00" fill="#666666">[timestamp]</text>
<polygon fill="none" stroke="#000000" stroke-width="3" points="46,-44.5 46,-202.5 255,-202.5 255,-44.5 46,-44.5"/>
</g>
<!-- user -->
<g id="node2" class="node">
<title>user</title>
<polygon fill="#efefef" stroke="transparent" points="43.5,-655.5 43.5,-690.5 256.5,-690.5 256.5,-655.5 43.5,-655.5"/>
<polygon fill="none" stroke="#000000" points="43.5,-655.5 43.5,-690.5 256.5,-690.5 256.5,-655.5 43.5,-655.5"/>
<text text-anchor="start" x="68.7137" y="-668.3" font-family="Arial Bold" font-size="18.00" fill="#000000">user</text>
<text text-anchor="start" x="103.7183" y="-668.3" font-family="Arial" font-size="14.00" fill="#000000">    </text>
<text text-anchor="start" x="137.9231" y="-668.3" font-family="Arial" font-size="14.00" fill="#666666">[BASE TABLE]</text>
<polygon fill="none" stroke="#000000" points="43.5,-625.5 43.5,-655.5 256.5,-655.5 256.5,-625.5 43.5,-625.5"/>
<text text-anchor="start" x="50.5" y="-636.9" font-family="Arial" font-size="14.00" fill="#000000">id    </text>
<text text-anchor="start" x="95.594" y="-636.9" font-family="Arial" font-size="14.00" fill="#666666">[bigint]</text>
<polygon fill="none" stroke="#000000" points="43.5,-595.5 43.5,-625.5 256.5,-625.5 256.5,-595.5 43.5,-595.5"/>
<text text-anchor="start" x="50.5" y="-606.9" font-family="Arial" font-size="14.00" fill="#000000">name    </text>
<text text-anchor="start" x="119.7132" y="-606.9" font-family="Arial" font-size="14.00" fill="#666666">[varchar(50)]</text>
<polygon fill="none" stroke="#000000" points="43.5,-565.5 43.5,-595.5 256.5,-595.5 256.5,-565.5 43.5,-565.5"/>
<text text-anchor="start" x="50.5" y="-576.9" font-family="Arial" font-size="14.00" fill="#000000">email    </text>
<text text-anchor="start" x="118.1438" y="-576.9" font-family="Arial" font-size="14.00" fill="#666666">[varchar(50)]</text>
<polygon fill="none" stroke="#000000" points="43.5,-535.5 43.5,-565.5 256.5,-565.5 256.5,-535.5 43.5,-535.5"/>
<text text-anchor="start" x="50.0624" y="-546.9" font-family="Arial" font-size="14.00" fill="#000000">email_verified    </text>
<text text-anchor="start" x="170.601" y="-546.9" font-family="Arial" font-size="14.00" fill="#666666">[varchar(50)]</text>
<polygon fill="none" stroke="#000000" points="43.5,-505.5 43.5,-535.5 256.5,-535.5 256.5,-505.5 43.5,-505.5"/>
<text text-anchor="start" x="50.5" y="-516.9" font-family="Arial" font-size="14.00" fill="#000000">password    </text>
<text text-anchor="start" x="144.6024" y="-516.9" font-family="Arial" font-size="14.00" fill="#666666">[varchar(255)]</text>
<polygon fill="none" stroke="#000000" points="43.5,-475.5 43.5,-505.5 256.5,-505.5 256.5,-475.5 43.5,-475.5"/>
<text text-anchor="start" x="50.5" y="-486.9" font-family="Arial" font-size="14.00" fill="#000000">birthday    </text>
<text text-anchor="start" x="134.493" y="-486.9" font-family="Arial" font-size="14.00" fill="#666666">[date]</text>
<polygon fill="none" stroke="#000000" points="43.5,-445.5 43.5,-475.5 256.5,-475.5 256.5,-445.5 43.5,-445.5"/>
<text text-anchor="start" x="50.4397" y="-456.9" font-family="Arial" font-size="14.00" fill="#000000">plate_number    </text>
<text text-anchor="start" x="170.2237" y="-456.9" font-family="Arial" font-size="14.00" fill="#666666">[varchar(50)]</text>
<polygon fill="none" stroke="#000000" points="43.5,-415.5 43.5,-445.5 256.5,-445.5 256.5,-415.5 43.5,-415.5"/>
<text text-anchor="start" x="50.5" y="-426.9" font-family="Arial" font-size="14.00" fill="#000000">attribute_id    </text>
<text text-anchor="start" x="153.946" y="-426.9" font-family="Arial" font-size="14.00" fill="#666666">[bigint]</text>
<polygon fill="none" stroke="#000000" points="43.5,-385.5 43.5,-415.5 256.5,-415.5 256.5,-385.5 43.5,-385.5"/>
<text text-anchor="start" x="50.5" y="-396.9" font-family="Arial" font-size="14.00" fill="#000000">created_at    </text>
<text text-anchor="start" x="150.8422" y="-396.9" font-family="Arial" font-size="14.00" fill="#666666">[timestamp]</text>
<polygon fill="none" stroke="#000000" points="43.5,-355.5 43.5,-385.5 256.5,-385.5 256.5,-355.5 43.5,-355.5"/>
<text text-anchor="start" x="50.5" y="-366.9" font-family="Arial" font-size="14.00" fill="#000000">updated_at    </text>
<text text-anchor="start" x="154.7468" y="-366.9" font-family="Arial" font-size="14.00" fill="#666666">[timestamp]</text>
<polygon fill="none" stroke="#000000" points="43.5,-325.5 43.5,-355.5 256.5,-355.5 256.5,-325.5 43.5,-325.5"/>
<text text-anchor="start" x="50.5" y="-336.9" font-family="Arial" font-size="14.00" fill="#000000">deleted_at    </text>
<text text-anchor="start" x="150.0708" y="-336.9" font-family="Arial" font-size="14.00" fill="#666666">[timestamp]</text>
</g>
<!-- user&#45;&gt;attribute -->
<g id="edge1" class="edge">
<title>user:attribute_id&#45;&gt;attribute:id</title>
<path fill="none" stroke="#000000" d="M266.4693,-429.6501C319.4486,-419.992 296.4277,-330.3932 256.5,-283 195.7701,-210.9151 108.2299,-319.0849 47.5,-247 19.8666,-214.1998 4.6111,-150.5 47.5,-150.5"/>
<polygon fill="#000000" stroke="#000000" points="266.4639,-429.6504 256.1177,-426.0163 261.4819,-430.0752 256.5,-430.5 256.5,-430.5 256.5,-430.5 261.4819,-430.0752 256.8823,-434.9837 266.4639,-429.6504 266.4639,-429.6504"/>
<text text-anchor="start" x="263.271" y="-440.5" font-family="Arial" font-size="10.00" fill="#000000">FOREIGN KEY (attribute_id) REFERENCES attribute (id)</text>
</g>
</g>
</svg>
