<?xml version="1.0" encoding="UTF-8" standalone="no"?>
<!DOCTYPE svg PUBLIC "-//W3C//DTD SVG 1.1//EN"
 "http://www.w3.org/Graphics/SVG/1.1/DTD/svg11.dtd">
<!-- Generated by graphviz version 2.40.1 (20161225.0304)
 -->
<!-- Title: tbls_demo_box Pages: 1 -->
<svg width="943pt" height="736pt"
 viewBox="0.00 0.00 943.00 736.00" xmlns="http://www.w3.org/2000/svg" xmlns:xlink="http://www.w3.org/1999/xlink">
<g id="graph0" class="graph" transform="scale(1 1) rotate(0) translate(4 732)">
<title>tbls_demo_box</title>
<polygon fill="#ffffff" stroke="transparent" points="-4,4 -4,-732 939,-732 939,4 -4,4"/>
<!-- __drizzle_migrations -->
<g id="node1" class="node">
<title>__drizzle_migrations</title>
<polygon fill="#efefef" stroke="transparent" points="43,-529.5 43,-564.5 349,-564.5 349,-529.5 43,-529.5"/>
<polygon fill="none" stroke="#000000" points="43,-529.5 43,-564.5 349,-564.5 349,-529.5 43,-529.5"/>
<text text-anchor="start" x="49.7103" y="-542.3" font-family="Arial Bold" font-size="18.00" fill="#000000">__drizzle_migrations</text>
<text text-anchor="start" x="214.7217" y="-542.3" font-family="Arial" font-size="14.00" fill="#000000">    </text>
<text text-anchor="start" x="248.9265" y="-542.3" font-family="Arial" font-size="14.00" fill="#666666">[BASE TABLE]</text>
<polygon fill="none" stroke="#000000" points="43,-499.5 43,-529.5 349,-529.5 349,-499.5 43,-499.5"/>
<text text-anchor="start" x="50" y="-510.9" font-family="Arial" font-size="14.00" fill="#000000">id    </text>
<text text-anchor="start" x="95.094" y="-510.9" font-family="Arial" font-size="14.00" fill="#666666">[bigint unsigned]</text>
<polygon fill="none" stroke="#000000" points="43,-469.5 43,-499.5 349,-499.5 349,-469.5 43,-469.5"/>
<text text-anchor="start" x="50" y="-480.9" font-family="Arial" font-size="14.00" fill="#000000">hash    </text>
<text text-anchor="start" x="114.5526" y="-480.9" font-family="Arial" font-size="14.00" fill="#666666">[text]</text>
<polygon fill="none" stroke="#000000" points="43,-439.5 43,-469.5 349,-469.5 349,-439.5 43,-439.5"/>
<text text-anchor="start" x="50" y="-450.9" font-family="Arial" font-size="14.00" fill="#000000">created_at    </text>
<text text-anchor="start" x="150.3422" y="-450.9" font-family="Arial" font-size="14.00" fill="#666666">[bigint]</text>
</g>
<!-- attribute -->
<g id="node2" class="node">
<title>attribute</title>
<polygon fill="#efefef" stroke="transparent" points="458,-162.5 458,-197.5 664,-197.5 664,-162.5 458,-162.5"/>
<polygon fill="none" stroke="#000000" points="458,-162.5 458,-197.5 664,-197.5 664,-162.5 458,-162.5"/>
<text text-anchor="start" x="464.7071" y="-175.3" font-family="Arial Bold" font-size="18.00" fill="#000000">attribute</text>
<text text-anchor="start" x="529.7249" y="-175.3" font-family="Arial" font-size="14.00" fill="#000000">    </text>
<text text-anchor="start" x="563.9297" y="-175.3" font-family="Arial" font-size="14.00" fill="#666666">[BASE TABLE]</text>
<polygon fill="none" stroke="#000000" points="458,-132.5 458,-162.5 664,-162.5 664,-132.5 458,-132.5"/>
<text text-anchor="start" x="465" y="-143.9" font-family="Arial" font-size="14.00" fill="#000000">id    </text>
<text text-anchor="start" x="510.094" y="-143.9" font-family="Arial" font-size="14.00" fill="#666666">[bigint]</text>
<polygon fill="none" stroke="#000000" points="458,-102.5 458,-132.5 664,-132.5 664,-102.5 458,-102.5"/>
<text text-anchor="start" x="465" y="-113.9" font-family="Arial" font-size="14.00" fill="#000000">name    </text>
<text text-anchor="start" x="534.2132" y="-113.9" font-family="Arial" font-size="14.00" fill="#666666">[varchar(50)]</text>
<polygon fill="none" stroke="#000000" points="458,-72.5 458,-102.5 664,-102.5 664,-72.5 458,-72.5"/>
<text text-anchor="start" x="465" y="-83.9" font-family="Arial" font-size="14.00" fill="#000000">created_at    </text>
<text text-anchor="start" x="565.3422" y="-83.9" font-family="Arial" font-size="14.00" fill="#666666">[timestamp]</text>
<polygon fill="none" stroke="#000000" points="458,-42.5 458,-72.5 664,-72.5 664,-42.5 458,-42.5"/>
<text text-anchor="start" x="465" y="-53.9" font-family="Arial" font-size="14.00" fill="#000000">updated_at    </text>
<text text-anchor="start" x="569.2468" y="-53.9" font-family="Arial" font-size="14.00" fill="#666666">[timestamp]</text>
</g>
<!-- user -->
<g id="node3" class="node">
<title>user</title>
<polygon fill="#efefef" stroke="transparent" points="454,-649.5 454,-684.5 667,-684.5 667,-649.5 454,-649.5"/>
<polygon fill="none" stroke="#000000" points="454,-649.5 454,-684.5 667,-684.5 667,-649.5 454,-649.5"/>
<text text-anchor="start" x="479.2137" y="-662.3" font-family="Arial Bold" font-size="18.00" fill="#000000">user</text>
<text text-anchor="start" x="514.2183" y="-662.3" font-family="Arial" font-size="14.00" fill="#000000">    </text>
<text text-anchor="start" x="548.4231" y="-662.3" font-family="Arial" font-size="14.00" fill="#666666">[BASE TABLE]</text>
<polygon fill="none" stroke="#000000" points="454,-619.5 454,-649.5 667,-649.5 667,-619.5 454,-619.5"/>
<text text-anchor="start" x="461" y="-630.9" font-family="Arial" font-size="14.00" fill="#000000">id    </text>
<text text-anchor="start" x="506.094" y="-630.9" font-family="Arial" font-size="14.00" fill="#666666">[bigint]</text>
<polygon fill="none" stroke="#000000" points="454,-589.5 454,-619.5 667,-619.5 667,-589.5 454,-589.5"/>
<text text-anchor="start" x="461" y="-600.9" font-family="Arial" font-size="14.00" fill="#000000">name    </text>
<text text-anchor="start" x="530.2132" y="-600.9" font-family="Arial" font-size="14.00" fill="#666666">[varchar(50)]</text>
<polygon fill="none" stroke="#000000" points="454,-559.5 454,-589.5 667,-589.5 667,-559.5 454,-559.5"/>
<text text-anchor="start" x="461" y="-570.9" font-family="Arial" font-size="14.00" fill="#000000">email    </text>
<text text-anchor="start" x="528.6438" y="-570.9" font-family="Arial" font-size="14.00" fill="#666666">[varchar(50)]</text>
<polygon fill="none" stroke="#000000" points="454,-529.5 454,-559.5 667,-559.5 667,-529.5 454,-529.5"/>
<text text-anchor="start" x="460.5624" y="-540.9" font-family="Arial" font-size="14.00" fill="#000000">email_verified    </text>
<text text-anchor="start" x="581.101" y="-540.9" font-family="Arial" font-size="14.00" fill="#666666">[varchar(50)]</text>
<polygon fill="none" stroke="#000000" points="454,-499.5 454,-529.5 667,-529.5 667,-499.5 454,-499.5"/>
<text text-anchor="start" x="461" y="-510.9" font-family="Arial" font-size="14.00" fill="#000000">password    </text>
<text text-anchor="start" x="555.1024" y="-510.9" font-family="Arial" font-size="14.00" fill="#666666">[varchar(255)]</text>
<polygon fill="none" stroke="#000000" points="454,-469.5 454,-499.5 667,-499.5 667,-469.5 454,-469.5"/>
<text text-anchor="start" x="461" y="-480.9" font-family="Arial" font-size="14.00" fill="#000000">birthday    </text>
<text text-anchor="start" x="544.993" y="-480.9" font-family="Arial" font-size="14.00" fill="#666666">[date]</text>
<polygon fill="none" stroke="#000000" points="454,-439.5 454,-469.5 667,-469.5 667,-439.5 454,-439.5"/>
<text text-anchor="start" x="460.9397" y="-450.9" font-family="Arial" font-size="14.00" fill="#000000">plate_number    </text>
<text text-anchor="start" x="580.7237" y="-450.9" font-family="Arial" font-size="14.00" fill="#666666">[varchar(50)]</text>
<polygon fill="none" stroke="#000000" points="454,-409.5 454,-439.5 667,-439.5 667,-409.5 454,-409.5"/>
<text text-anchor="start" x="461" y="-420.9" font-family="Arial" font-size="14.00" fill="#000000">attribute_id    </text>
<text text-anchor="start" x="564.446" y="-420.9" font-family="Arial" font-size="14.00" fill="#666666">[bigint]</text>
<polygon fill="none" stroke="#000000" points="454,-379.5 454,-409.5 667,-409.5 667,-379.5 454,-379.5"/>
<text text-anchor="start" x="461" y="-390.9" font-family="Arial" font-size="14.00" fill="#000000">created_at    </text>
<text text-anchor="start" x="561.3422" y="-390.9" font-family="Arial" font-size="14.00" fill="#666666">[timestamp]</text>
<polygon fill="none" stroke="#000000" points="454,-349.5 454,-379.5 667,-379.5 667,-349.5 454,-349.5"/>
<text text-anchor="start" x="461" y="-360.9" font-family="Arial" font-size="14.00" fill="#000000">updated_at    </text>
<text text-anchor="start" x="565.2468" y="-360.9" font-family="Arial" font-size="14.00" fill="#666666">[timestamp]</text>
<polygon fill="none" stroke="#000000" points="454,-319.5 454,-349.5 667,-349.5 667,-319.5 454,-319.5"/>
<text text-anchor="start" x="461" y="-330.9" font-family="Arial" font-size="14.00" fill="#000000">deleted_at    </text>
<text text-anchor="start" x="560.5708" y="-330.9" font-family="Arial" font-size="14.00" fill="#666666">[timestamp]</text>
</g>
<!-- user&#45;&gt;attribute -->
<g id="edge1" class="edge">
<title>user:attribute_id&#45;&gt;attribute:id</title>
<path fill="none" stroke="#000000" d="M676.9693,-423.6501C729.9486,-413.992 706.9277,-324.3932 667,-277 606.2701,-204.9151 518.7299,-313.0849 458,-241 431.2257,-209.2195 416.4444,-147.5 458,-147.5"/>
<polygon fill="#000000" stroke="#000000" points="676.9639,-423.6504 666.6177,-420.0163 671.9819,-424.0752 667,-424.5 667,-424.5 667,-424.5 671.9819,-424.0752 667.3823,-428.9837 676.9639,-423.6504 676.9639,-423.6504"/>
<text text-anchor="start" x="673.771" y="-434.5" font-family="Arial" font-size="10.00" fill="#000000">FOREIGN KEY (attribute_id) REFERENCES attribute (id)</text>
</g>
</g>
</svg>
