<?xml version="1.0" encoding="UTF-8" standalone="no"?>
<!DOCTYPE svg PUBLIC "-//W3C//DTD SVG 1.1//EN"
 "http://www.w3.org/Graphics/SVG/1.1/DTD/svg11.dtd">
<!-- Generated by graphviz version 2.40.1 (20161225.0304)
 -->
<!-- Title: user Pages: 1 -->
<svg width="513pt" height="742pt"
 viewBox="0.00 0.00 513.00 742.00" xmlns="http://www.w3.org/2000/svg" xmlns:xlink="http://www.w3.org/1999/xlink">
<g id="graph0" class="graph" transform="scale(1 1) rotate(0) translate(4 738)">
<title>user</title>
<polygon fill="#ffffff" stroke="transparent" points="-4,4 -4,-738 509,-738 509,4 -4,4"/>
<!-- user -->
<g id="node1" class="node">
<title>user</title>
<polygon fill="#efefef" stroke="transparent" points="54,-652.5 54,-687.5 237,-687.5 237,-652.5 54,-652.5"/>
<polygon fill="none" stroke="#000000" points="54,-652.5 54,-687.5 237,-687.5 237,-652.5 54,-652.5"/>
<text text-anchor="start" x="64.2137" y="-665.3" font-family="Arial Bold" font-size="18.00" fill="#000000">user</text>
<text text-anchor="start" x="99.2183" y="-665.3" font-family="Arial" font-size="14.00" fill="#000000">    </text>
<text text-anchor="start" x="133.4231" y="-665.3" font-family="Arial" font-size="14.00" fill="#666666">[BASE TABLE]</text>
<polygon fill="none" stroke="#000000" points="54,-622.5 54,-652.5 237,-652.5 237,-622.5 54,-622.5"/>
<text text-anchor="start" x="61" y="-633.9" font-family="Arial" font-size="14.00" fill="#000000">id </text>
<text text-anchor="start" x="75.7798" y="-633.9" font-family="Arial" font-size="14.00" fill="#666666">[bigint]</text>
<polygon fill="none" stroke="#000000" points="54,-592.5 54,-622.5 237,-622.5 237,-592.5 54,-592.5"/>
<text text-anchor="start" x="61" y="-603.9" font-family="Arial" font-size="14.00" fill="#000000">name </text>
<text text-anchor="start" x="99.899" y="-603.9" font-family="Arial" font-size="14.00" fill="#666666">[varchar(50)]</text>
<polygon fill="none" stroke="#000000" points="54,-562.5 54,-592.5 237,-592.5 237,-562.5 54,-562.5"/>
<text text-anchor="start" x="61" y="-573.9" font-family="Arial" font-size="14.00" fill="#000000">email </text>
<text text-anchor="start" x="98.3296" y="-573.9" font-family="Arial" font-size="14.00" fill="#666666">[varchar(50)]</text>
<polygon fill="none" stroke="#000000" points="54,-532.5 54,-562.5 237,-562.5 237,-532.5 54,-532.5"/>
<text text-anchor="start" x="60.7195" y="-543.9" font-family="Arial" font-size="14.00" fill="#000000">email_verified </text>
<text text-anchor="start" x="150.9439" y="-543.9" font-family="Arial" font-size="14.00" fill="#666666">[varchar(50)]</text>
<polygon fill="none" stroke="#000000" points="54,-502.5 54,-532.5 237,-532.5 237,-502.5 54,-502.5"/>
<text text-anchor="start" x="61" y="-513.9" font-family="Arial" font-size="14.00" fill="#000000">password </text>
<text text-anchor="start" x="124.7882" y="-513.9" font-family="Arial" font-size="14.00" fill="#666666">[varchar(255)]</text>
<polygon fill="none" stroke="#000000" points="54,-472.5 54,-502.5 237,-502.5 237,-472.5 54,-472.5"/>
<text text-anchor="start" x="61" y="-483.9" font-family="Arial" font-size="14.00" fill="#000000">birthday </text>
<text text-anchor="start" x="114.6788" y="-483.9" font-family="Arial" font-size="14.00" fill="#666666">[date]</text>
<polygon fill="none" stroke="#000000" points="54,-442.5 54,-472.5 237,-472.5 237,-442.5 54,-442.5"/>
<text text-anchor="start" x="61" y="-453.9" font-family="Arial" font-size="14.00" fill="#000000">plate_number </text>
<text text-anchor="start" x="150.4698" y="-453.9" font-family="Arial" font-size="14.00" fill="#666666">[varchar(50)]</text>
<polygon fill="none" stroke="#000000" points="54,-412.5 54,-442.5 237,-442.5 237,-412.5 54,-412.5"/>
<text text-anchor="start" x="61" y="-423.9" font-family="Arial" font-size="14.00" fill="#000000">attribute_id </text>
<text text-anchor="start" x="134.1318" y="-423.9" font-family="Arial" font-size="14.00" fill="#666666">[bigint]</text>
<polygon fill="none" stroke="#000000" points="54,-382.5 54,-412.5 237,-412.5 237,-382.5 54,-382.5"/>
<text text-anchor="start" x="61" y="-393.9" font-family="Arial" font-size="14.00" fill="#000000">created_at </text>
<text text-anchor="start" x="131.028" y="-393.9" font-family="Arial" font-size="14.00" fill="#666666">[timestamp]</text>
<polygon fill="none" stroke="#000000" points="54,-352.5 54,-382.5 237,-382.5 237,-352.5 54,-352.5"/>
<text text-anchor="start" x="61" y="-363.9" font-family="Arial" font-size="14.00" fill="#000000">updated_at </text>
<text text-anchor="start" x="134.9326" y="-363.9" font-family="Arial" font-size="14.00" fill="#666666">[timestamp]</text>
<polygon fill="none" stroke="#000000" points="54,-322.5 54,-352.5 237,-352.5 237,-322.5 54,-322.5"/>
<text text-anchor="start" x="61" y="-333.9" font-family="Arial" font-size="14.00" fill="#000000">deleted_at </text>
<text text-anchor="start" x="130.2566" y="-333.9" font-family="Arial" font-size="14.00" fill="#666666">[timestamp]</text>
<polygon fill="none" stroke="#000000" stroke-width="3" points="52,-321.5 52,-689.5 238,-689.5 238,-321.5 52,-321.5"/>
</g>
<!-- attribute -->
<g id="node2" class="node">
<title>attribute</title>
<polygon fill="#efefef" stroke="transparent" points="43,-162.5 43,-197.5 249,-197.5 249,-162.5 43,-162.5"/>
<polygon fill="none" stroke="#000000" points="43,-162.5 43,-197.5 249,-197.5 249,-162.5 43,-162.5"/>
<text text-anchor="start" x="49.7071" y="-175.3" font-family="Arial Bold" font-size="18.00" fill="#000000">attribute</text>
<text text-anchor="start" x="114.7249" y="-175.3" font-family="Arial" font-size="14.00" fill="#000000">    </text>
<text text-anchor="start" x="148.9297" y="-175.3" font-family="Arial" font-size="14.00" fill="#666666">[BASE TABLE]</text>
<polygon fill="none" stroke="#000000" points="43,-132.5 43,-162.5 249,-162.5 249,-132.5 43,-132.5"/>
<text text-anchor="start" x="50" y="-143.9" font-family="Arial" font-size="14.00" fill="#000000">id    </text>
<text text-anchor="start" x="95.094" y="-143.9" font-family="Arial" font-size="14.00" fill="#666666">[bigint]</text>
<polygon fill="none" stroke="#000000" points="43,-102.5 43,-132.5 249,-132.5 249,-102.5 43,-102.5"/>
<text text-anchor="start" x="50" y="-113.9" font-family="Arial" font-size="14.00" fill="#000000">name    </text>
<text text-anchor="start" x="119.2132" y="-113.9" font-family="Arial" font-size="14.00" fill="#666666">[varchar(50)]</text>
<polygon fill="none" stroke="#000000" points="43,-72.5 43,-102.5 249,-102.5 249,-72.5 43,-72.5"/>
<text text-anchor="start" x="50" y="-83.9" font-family="Arial" font-size="14.00" fill="#000000">created_at    </text>
<text text-anchor="start" x="150.3422" y="-83.9" font-family="Arial" font-size="14.00" fill="#666666">[timestamp]</text>
<polygon fill="none" stroke="#000000" points="43,-42.5 43,-72.5 249,-72.5 249,-42.5 43,-42.5"/>
<text text-anchor="start" x="50" y="-53.9" font-family="Arial" font-size="14.00" fill="#000000">updated_at    </text>
<text text-anchor="start" x="154.2468" y="-53.9" font-family="Arial" font-size="14.00" fill="#666666">[timestamp]</text>
</g>
<!-- user&#45;&gt;attribute -->
<g id="edge1" class="edge">
<title>user:attribute_id&#45;&gt;attribute:id</title>
<path fill="none" stroke="#000000" d="M247.1692,-426.6351C301.1947,-416.8069 277.4269,-325.619 237,-277 180.9323,-209.5709 99.0677,-308.4291 43,-241 16.4313,-209.0474 1.4444,-147.5 43,-147.5"/>
<polygon fill="#000000" stroke="#000000" points="246.964,-426.6525 236.6186,-423.0162 241.982,-427.0762 237,-427.5 237,-427.5 237,-427.5 241.982,-427.0762 237.3814,-431.9838 246.964,-426.6525 246.964,-426.6525"/>
<text text-anchor="start" x="243.771" y="-437.5" font-family="Arial" font-size="10.00" fill="#000000">FOREIGN KEY (attribute_id) REFERENCES attribute (id)</text>
</g>
</g>
</svg>
